<svg width="216" height="48" viewBox="0 0 216 48" fill="none" xmlns="http://www.w3.org/2000/svg">
<rect x="13.5273" y="41.377" width="7.16149" height="6.36577" fill="#4B525E"/>
<rect x="6.36621" y="34.2168" width="7.16149" height="6.36577" fill="#5E6C84"/>
<rect y="27.0547" width="6.36577" height="7.16149" fill="#5E6C84"/>
<rect x="6.36621" y="19.8926" width="7.16149" height="7.16149" fill="#5E6C84"/>
<rect x="13.5273" y="26.2598" width="7.16149" height="7.95722" fill="#4B525E"/>
<rect x="20.6885" y="19.8926" width="6.36577" height="7.16149" fill="#4B525E"/>
<rect x="27.0547" y="13.5273" width="7.16149" height="6.36577" fill="#4B525E"/>
<rect x="13.5273" y="13.5273" width="7.16149" height="6.36577" fill="#4B525E"/>
<rect x="20.6885" y="6.36523" width="6.36577" height="7.16149" fill="#4B525E"/>
<rect x="13.5273" width="7.16149" height="7.16149" fill="#4B525E"/>
<path d="M51.1143 26.958C51.1143 29.5433 50.3766 31.5234 48.9014 32.8984C47.4333 34.2734 45.3099 34.9609 42.5312 34.9609H38.084V19.2559H43.0146C45.5785 19.2559 47.5693 19.9326 48.9873 21.2861C50.4053 22.6396 51.1143 24.5303 51.1143 26.958ZM47.6553 27.0439C47.6553 23.6709 46.1657 21.9844 43.1865 21.9844H41.4141V32.2109H42.8428C46.0511 32.2109 47.6553 30.4886 47.6553 27.0439ZM63.9834 34.9609L62.8447 31.2227H57.1191L55.9805 34.9609H52.3926L57.9355 19.1914H62.0068L67.5713 34.9609H63.9834ZM62.0498 28.4297C60.9971 25.0423 60.4027 23.1266 60.2666 22.6826C60.1377 22.2386 60.0446 21.8877 59.9873 21.6299C59.751 22.5465 59.0742 24.8132 57.957 28.4297H62.0498ZM83.8135 27.0869C83.8135 29.6865 83.1689 31.6846 81.8799 33.0811C80.5908 34.4775 78.7432 35.1758 76.3369 35.1758C73.9307 35.1758 72.083 34.4775 70.7939 33.0811C69.5049 31.6846 68.8604 29.6794 68.8604 27.0654C68.8604 24.4515 69.5049 22.457 70.7939 21.082C72.0902 19.6999 73.945 19.0088 76.3584 19.0088C78.7718 19.0088 80.6159 19.7035 81.8906 21.0928C83.1725 22.4821 83.8135 24.4801 83.8135 27.0869ZM72.3516 27.0869C72.3516 28.8415 72.6846 30.1628 73.3506 31.0508C74.0166 31.9388 75.012 32.3828 76.3369 32.3828C78.9938 32.3828 80.3223 30.6175 80.3223 27.0869C80.3223 23.5492 79.001 21.7803 76.3584 21.7803C75.0335 21.7803 74.0345 22.2279 73.3613 23.123C72.6882 24.0111 72.3516 25.3324 72.3516 27.0869ZM96.1133 26.6465H97.209C98.2331 26.6465 98.9993 26.446 99.5078 26.0449C100.016 25.6367 100.271 25.0459 100.271 24.2725C100.271 23.4919 100.056 22.9154 99.626 22.543C99.2035 22.1706 98.5374 21.9844 97.6279 21.9844H96.1133V26.6465ZM103.633 24.1543C103.633 25.8444 103.103 27.137 102.043 28.0322C100.99 28.9274 99.4899 29.375 97.542 29.375H96.1133V34.9609H92.7832V19.2559H97.7998C99.7048 19.2559 101.151 19.6676 102.14 20.4912C103.135 21.3076 103.633 22.5286 103.633 24.1543ZM109.928 26.2275H111.002C112.055 26.2275 112.832 26.0521 113.333 25.7012C113.834 25.3503 114.085 24.7988 114.085 24.0469C114.085 23.3021 113.827 22.7721 113.312 22.457C112.803 22.1419 112.012 21.9844 110.938 21.9844H109.928V26.2275ZM109.928 28.9346V34.9609H106.598V19.2559H111.174C113.308 19.2559 114.887 19.6462 115.911 20.4268C116.935 21.2002 117.447 22.3783 117.447 23.9609C117.447 24.8848 117.193 25.7083 116.685 26.4316C116.176 27.1478 115.456 27.71 114.525 28.1182C116.889 31.6488 118.428 33.9297 119.145 34.9609H115.449L111.7 28.9346H109.928ZM135.376 27.0869C135.376 29.6865 134.731 31.6846 133.442 33.0811C132.153 34.4775 130.306 35.1758 127.899 35.1758C125.493 35.1758 123.646 34.4775 122.356 33.0811C121.067 31.6846 120.423 29.6794 120.423 27.0654C120.423 24.4515 121.067 22.457 122.356 21.082C123.653 19.6999 125.507 19.0088 127.921 19.0088C130.334 19.0088 132.178 19.7035 133.453 21.0928C134.735 22.4821 135.376 24.4801 135.376 27.0869ZM123.914 27.0869C123.914 28.8415 124.247 30.1628 124.913 31.0508C125.579 31.9388 126.575 32.3828 127.899 32.3828C130.556 32.3828 131.885 30.6175 131.885 27.0869C131.885 23.5492 130.563 21.7803 127.921 21.7803C126.596 21.7803 125.597 22.2279 124.924 23.123C124.251 24.0111 123.914 25.3324 123.914 27.0869ZM141.961 26.6465H143.057C144.081 26.6465 144.847 26.446 145.355 26.0449C145.864 25.6367 146.118 25.0459 146.118 24.2725C146.118 23.4919 145.903 22.9154 145.474 22.543C145.051 22.1706 144.385 21.9844 143.476 21.9844H141.961V26.6465ZM149.48 24.1543C149.48 25.8444 148.951 27.137 147.891 28.0322C146.838 28.9274 145.338 29.375 143.39 29.375H141.961V34.9609H138.631V19.2559H143.647C145.552 19.2559 146.999 19.6676 147.987 20.4912C148.983 21.3076 149.48 22.5286 149.48 24.1543ZM158.504 34.9609H155.174V22.0273H150.909V19.2559H162.769V22.0273H158.504V34.9609ZM174.23 34.9609H165.186V19.2559H174.23V21.9844H168.516V25.4326H173.833V28.1611H168.516V32.2109H174.23V34.9609ZM184.188 21.8018C182.935 21.8018 181.965 22.2744 181.277 23.2197C180.59 24.1579 180.246 25.4684 180.246 27.1514C180.246 30.6533 181.56 32.4043 184.188 32.4043C185.291 32.4043 186.627 32.1286 188.195 31.5771V34.3701C186.906 34.9072 185.467 35.1758 183.877 35.1758C181.592 35.1758 179.845 34.4847 178.635 33.1025C177.424 31.7132 176.819 29.7223 176.819 27.1299C176.819 25.4971 177.117 24.0684 177.711 22.8438C178.305 21.612 179.158 20.6702 180.268 20.0186C181.385 19.3597 182.692 19.0303 184.188 19.0303C185.714 19.0303 187.246 19.3991 188.786 20.1367L187.712 22.8438C187.125 22.5645 186.534 22.321 185.939 22.1133C185.345 21.9056 184.761 21.8018 184.188 21.8018ZM204.416 34.9609H201.097V28.1826H194.877V34.9609H191.547V19.2559H194.877V25.4111H201.097V19.2559H204.416V34.9609Z" fill="#4B525D"/>
<path d="M131.895 10.4648H132.492C133.051 10.4648 133.469 10.3555 133.746 10.1367C134.023 9.91406 134.162 9.5918 134.162 9.16992C134.162 8.74414 134.045 8.42969 133.811 8.22656C133.58 8.02344 133.217 7.92188 132.721 7.92188H131.895V10.4648ZM135.996 9.10547C135.996 10.0273 135.707 10.7324 135.129 11.2207C134.555 11.709 133.736 11.9531 132.674 11.9531H131.895V15H130.078V6.43359H132.814C133.854 6.43359 134.643 6.6582 135.182 7.10742C135.725 7.55273 135.996 8.21875 135.996 9.10547ZM145.389 10.7051C145.389 12.123 145.037 13.2129 144.334 13.9746C143.631 14.7363 142.623 15.1172 141.311 15.1172C139.998 15.1172 138.99 14.7363 138.287 13.9746C137.584 13.2129 137.232 12.1191 137.232 10.6934C137.232 9.26758 137.584 8.17969 138.287 7.42969C138.994 6.67578 140.006 6.29883 141.322 6.29883C142.639 6.29883 143.645 6.67773 144.34 7.43555C145.039 8.19336 145.389 9.2832 145.389 10.7051ZM139.137 10.7051C139.137 11.6621 139.318 12.3828 139.682 12.8672C140.045 13.3516 140.588 13.5938 141.311 13.5938C142.76 13.5938 143.484 12.6309 143.484 10.7051C143.484 8.77539 142.764 7.81055 141.322 7.81055C140.6 7.81055 140.055 8.05469 139.688 8.54297C139.32 9.02734 139.137 9.74805 139.137 10.7051ZM155.508 15H153.439L152.279 10.5C152.236 10.3398 152.162 10.0098 152.057 9.50977C151.955 9.00586 151.896 8.66797 151.881 8.49609C151.857 8.70703 151.799 9.04688 151.705 9.51562C151.611 9.98047 151.539 10.3125 151.488 10.5117L150.334 15H148.271L146.086 6.43359H147.873L148.969 11.1094C149.16 11.9727 149.299 12.7207 149.385 13.3535C149.408 13.1309 149.461 12.7871 149.543 12.3223C149.629 11.8535 149.709 11.4902 149.783 11.2324L151.031 6.43359H152.748L153.996 11.2324C154.051 11.4473 154.119 11.7754 154.201 12.2168C154.283 12.6582 154.346 13.0371 154.389 13.3535C154.428 13.0488 154.49 12.6699 154.576 12.2168C154.662 11.7598 154.74 11.3906 154.811 11.1094L155.9 6.43359H157.688L155.508 15ZM163.699 15H158.766V6.43359H163.699V7.92188H160.582V9.80273H163.482V11.291H160.582V13.5H163.699V15ZM167.309 10.2363H167.895C168.469 10.2363 168.893 10.1406 169.166 9.94922C169.439 9.75781 169.576 9.45703 169.576 9.04688C169.576 8.64062 169.436 8.35156 169.154 8.17969C168.877 8.00781 168.445 7.92188 167.859 7.92188H167.309V10.2363ZM167.309 11.7129V15H165.492V6.43359H167.988C169.152 6.43359 170.014 6.64648 170.572 7.07227C171.131 7.49414 171.41 8.13672 171.41 9C171.41 9.50391 171.271 9.95312 170.994 10.3477C170.717 10.7383 170.324 11.0449 169.816 11.2676C171.105 13.1934 171.945 14.4375 172.336 15H170.32L168.275 11.7129H167.309ZM178.348 15H173.414V6.43359H178.348V7.92188H175.23V9.80273H178.131V11.291H175.23V13.5H178.348V15ZM187.248 10.6348C187.248 12.0449 186.846 13.125 186.041 13.875C185.24 14.625 184.082 15 182.566 15H180.141V6.43359H182.83C184.229 6.43359 185.314 6.80273 186.088 7.54102C186.861 8.2793 187.248 9.31055 187.248 10.6348ZM185.361 10.6816C185.361 8.8418 184.549 7.92188 182.924 7.92188H181.957V13.5H182.736C184.486 13.5 185.361 12.5605 185.361 10.6816ZM192.141 6.43359H194.807C196.021 6.43359 196.902 6.60742 197.449 6.95508C198 7.29883 198.275 7.84766 198.275 8.60156C198.275 9.11328 198.154 9.5332 197.912 9.86133C197.674 10.1895 197.355 10.3867 196.957 10.4531V10.5117C197.5 10.6328 197.891 10.8594 198.129 11.1914C198.371 11.5234 198.492 11.9648 198.492 12.5156C198.492 13.2969 198.209 13.9062 197.643 14.3438C197.08 14.7812 196.314 15 195.346 15H192.141V6.43359ZM193.957 9.82617H195.012C195.504 9.82617 195.859 9.75 196.078 9.59766C196.301 9.44531 196.412 9.19336 196.412 8.8418C196.412 8.51367 196.291 8.2793 196.049 8.13867C195.811 7.99414 195.432 7.92188 194.912 7.92188H193.957V9.82617ZM193.957 11.2676V13.5H195.141C195.641 13.5 196.01 13.4043 196.248 13.2129C196.486 13.0215 196.605 12.7285 196.605 12.334C196.605 11.623 196.098 11.2676 195.082 11.2676H193.957ZM202.869 9.96094L204.656 6.43359H206.613L203.771 11.666V15H201.967V11.7246L199.125 6.43359H201.094L202.869 9.96094Z" fill="#5E6C84"/>
</svg>
